PathFileType	4	(X/Y/Z)	Patient4_TMGait_0pt2_01_left_12.trc.trc
DataRate	CameraRate	NumFrames	NumMarkers	Units	OrigDataRate	OrigDataStartFrame	OrigNumFrames
39.660056657224	39.660056657224	6	33	mm	39.660056657224	53	       141
Frame#	Time	Sacral			L.Shoulder			Chest			R.Shoulder			Neck			R.ASIS			L.ASIS			R.Thigh.Superior			R.Thigh.Lateral			R.Thigh.Inferior			R.Patella			L.Thigh.Superior			L.Thigh.Lateral			L.Thigh.Inferior			L.Patella			L.Shank.Superior			L.Shank.Lateral			L.Shank.Inferior			R.Shank.Superior			R.Shank.Lateral			R.Shank.Inferior			R.Heel			R.Midfoot.Superior			R.Midfoot.Lateral			R.Toe			L.Heel			L.Midfoot.Lateral			L.Midfoot.Superior			L.Toe			L.Elbow			L.Wrist			R.Elbow			R.Wrist			
		X1	Y1	Z1	X2	Y2	Z2	X3	Y3	Z3	X4	Y4	Z4	X5	Y5	Z5	X6	Y6	Z6	X7	Y7	Z7	X8	Y8	Z8	X9	Y9	Z9	X10	Y10	Z10	X11	Y11	Z11	X12	Y12	Z12	X13	Y13	Z13	X14	Y14	Z14	X15	Y15	Z15	X16	Y16	Z16	X17	Y17	Z17	X18	Y18	Z18	X19	Y19	Z19	X20	Y20	Z20	X21	Y21	Z21	X22	Y22	Z22	X23	Y23	Z23	X24	Y24	Z24	X25	Y25	Z25	X26	Y26	Z26	X27	Y27	Z27	X28	Y28	Z28	X29	Y29	Z29	X30	Y30	Z30	X31	Y31	Z31	X32	Y32	Z32	X33	Y33	Z33	

53	28.261142857143	783.229040828084	999.550941095100	430.035622577403	949.472989030279	1431.255081895050	247.434979984251	1061.367549024634	1359.160270503814	400.842295928481	989.526994413761	1427.123051402249	580.255428014168	942.650576733817	1489.678744330640	406.811808525602	1016.038357897467	931.326069486817	535.202831664236	993.632833519248	959.485805957332	264.091209221501	1062.217776669814	731.182246451874	502.600663538562	991.307009313042	620.018947719307	569.403192882947	1066.225568851505	565.276537389094	486.280197291424	1062.072957079811	456.500998376165	507.180832643127	1057.033257693409	751.676252412332	307.524991212771	980.279670751731	622.748782029096	256.590890678895	1066.747909735234	556.381211017372	329.252609417103	1070.697239664576	484.220088646344	341.951829825240	1038.479074759278	409.873447318086	337.512893340727	945.766780664218	298.396743775206	286.702383951230	982.389017829386	188.591788928280	366.788965640191	985.767111443045	389.968644393043	520.966578249391	865.726300446568	349.288548349773	582.300016210420	857.005014871747	237.082689195600	538.289299208813	657.662337194701	156.587015990989	506.427471670789	828.946642171134	125.975927725396	566.655837140261	718.073873101334	118.356296424178	591.300924908509	901.292578541189	34.350665882576	613.474040701304	842.405311609213	38.641834979844	403.891949331392	921.619419922019	36.219932774784	328.329959930917	1003.747628756456	95.944884621719	360.437150300890	1133.289269397330	42.968495316890	340.794447752101	918.831489757664	1084.479996802721	115.941998032934	1034.229427552029	850.385304739586	143.503396127832	1133.910225582063	1102.650515648869	664.844515893640	1371.091656682612	1010.603598515309	629.047997464090	
54	28.286357142857	781.305346827247	996.496542186161	425.154086074105	949.189828703505	1429.689238464907	246.378909424020	1059.080613475136	1356.904764231229	400.860702316967	985.130734215547	1423.582840350829	579.975481079533	941.285684068631	1487.343109860237	405.971930661417	1013.383761048298	928.987388136916	532.275314693678	993.924063204004	957.821875192903	261.174098084370	1065.419817459798	731.524498503398	498.962985941773	997.748541917346	618.658682226983	565.185891477163	1074.472858533376	565.834018454537	481.765980230779	1072.257190525508	455.885236385242	503.151226592137	1058.344848509301	750.419497863886	305.050501216791	982.556838598637	620.730525522720	254.692411201646	1069.212120084314	555.027894415916	328.085401788862	1073.577337555121	482.374990156270	341.058179410771	1039.786027924410	407.695856524970	336.941183837565	945.531232823188	297.524131111069	285.953960836801	979.535417203336	187.438508025224	366.620321060210	994.565444049145	389.326907926504	516.095754482787	872.035568367322	351.269643413543	575.020750112154	862.556694942217	238.823491721974	531.753423031127	662.119411963372	161.580029968579	495.818406203913	832.411035011939	128.406800025458	559.832032957713	720.252127465209	122.475970720596	582.115486753637	902.540075824205	33.994637972944	608.717538469159	837.410763765061	38.747770975785	403.791502102409	916.661703414033	36.225006019015	328.274584875625	998.915762848387	95.791922821166	360.459133694941	1128.414923673947	42.430333111754	340.805661181887	927.310319080996	1082.440203881125	113.054361594892	1051.868419497445	853.093992931196	140.991053709988	1114.053132065332	1090.732325057005	665.061574758329	1340.900250958316	972.968448937527	635.980601441935	
55	28.311571428571	779.366426414278	993.695861662174	420.660736567747	949.131478707933	1428.180345714706	245.480447682870	1056.892301675155	1354.791256139526	401.115146719810	980.661854445973	1420.278818455163	579.822084677024	940.048158006195	1485.170439666921	405.230002893642	1010.707407738764	926.926277919551	529.882520504571	994.227602058683	956.233896970280	258.735869617786	1068.098446734909	732.100329308070	495.874005864638	1003.636119924618	617.756464010575	561.723083656221	1081.746913969350	566.738547037385	477.835861413554	1081.570831372382	455.874311243898	499.596036996076	1059.349170502548	749.121073677139	303.025522518855	984.390780568323	618.807174648780	253.121865263543	1071.142602114599	553.674201049031	327.242815972847	1075.844181931668	480.597603927436	340.468013635415	1040.586715337477	405.635012998372	336.592607228189	944.918451634492	296.702742992139	285.355395894136	976.502871866861	186.369376410118	366.510605242500	1002.998516473734	389.005822879800	511.905044629831	878.676925429067	352.608679924920	568.921804657799	868.888345516781	239.995206479942	526.181370853695	667.802963261987	164.479930976176	487.241769108148	837.570493401998	130.176009811059	553.792899255695	724.524742565476	124.925179761735	574.477484613765	906.605723981519	33.720988302958	604.021802514817	832.395875321061	38.846173436137	403.684152757990	911.690116547496	36.225951348914	328.206889221012	994.044680249386	95.653901650488	360.470100633651	1123.506004688996	41.977871726101	340.801954910794	935.825206922535	1080.723719191054	110.393507018155	1069.960670540911	856.843264626015	138.621791366942	1092.003412584204	1079.663292204595	665.760804211149	1305.365458529486	937.199726645167	642.764388174738	
56	28.336785714286	777.422513429093	991.326065368174	416.571744856860	949.423790282719	1426.876530382459	244.757461672700	1054.880171009412	1352.952370687700	401.642708895148	976.161966206634	1417.389970494006	579.795325512997	939.022467046792	1483.313100804865	404.596786611584	1008.007205899468	925.317675334258	528.093900830581	994.509883430056	954.826630697613	256.810153152884	1070.116850446298	732.982738562338	493.382791739195	1008.766620103037	617.426533774171	559.103086673217	1087.822169969437	568.037795617899	474.602452547360	1089.795959419007	456.567727550028	496.666514753340	1059.918570725641	747.838625849904	301.510647986822	985.600759088476	617.075502049685	251.903780251727	1072.288906891958	552.375595980054	326.762393573939	1077.207495370399	478.963174741745	340.216450749706	1040.655383592897	403.785917574599	336.484392461700	943.782431908408	295.966816876095	284.930382736760	973.215217060836	185.426365455146	366.475272772264	1010.929323213141	389.093277941884	508.649858385273	885.599702183748	353.256590949610	564.381870810111	876.089054788699	240.515460331087	522.019493495314	674.913216303349	164.956767770438	481.287259560294	844.637607219137	131.136386439012	549.127298789011	731.128251539661	125.492919594107	569.015244062104	913.781802398740	33.615337304684	600.052102487784	827.358420643279	38.931771329183	403.577411159672	906.701569223809	36.225490781391	328.133284930816	989.129770170943	95.532918758431	360.479380201947	1118.559862064847	41.614767773444	340.787346285229	944.372852212716	1079.514884395242	107.917232021557	1088.419314563115	861.887878356559	136.394893159355	1067.906442880913	1069.960852692405	666.912449032208	1264.889824320673	904.397215892270	649.278046041897	
57	28.362000000000	775.470747658852	989.542425998689	412.888401005531	950.174837747210	1425.909141869934	244.240708744258	1053.106930540159	1351.494411790725	402.484165960615	971.677560098304	1415.069674910909	579.902297195865	938.288979781196	1481.900006298137	404.096142755626	1005.257574906907	924.299941356017	526.954432172501	994.717319278845	953.686457063827	255.421505430555	1071.374133064921	734.235316945825	491.536691541376	1012.971635267803	617.752060309056	557.389925357900	1092.566501955560	569.766172268158	472.190555744963	1096.801893291077	458.043510134970	494.529320950979	1059.940558799622	746.632347379958	300.541314277121	986.035448411887	615.623977132753	251.045368008752	1072.445247243830	551.188073591771	326.656359816636	1077.432014891836	477.542566359902	340.311641778111	1039.809079791173	402.233012586368	336.613027913861	942.005205553359	295.347484750778	284.683225344966	969.609211618006	184.645430003416	366.519029871303	1018.281147362014	389.669176519495	506.559942628123	892.762093833681	353.228352590393	561.676568542824	884.246137756488	240.370090033272	519.626277291802	683.662130636636	162.850821022673	478.309136310267	853.762858956634	131.234187954458	546.324617485896	740.217702179681	124.129848142031	566.172721949292	924.205465736367	33.784824408240	597.458161250893	822.297450868185	38.999999824068	403.476999256391	901.693567024963	36.225184581745	328.059205700644	984.168939156109	95.430868636961	360.492904286879	1113.576138258583	41.338896180991	340.767253219894	952.959565176971	1078.973259882062	105.593987593807	1107.145505840848	868.452863186321	134.335035596061	1042.027791844522	1062.105017866990	668.453546151362	1220.133529795274	875.538870852676	655.404355542499	
58	28.387214285714	773.496381945406	988.461479696896	409.600157998091	951.461046748316	1425.376091634554	243.969498599035	1051.614182034095	1350.486528048855	403.677303843108	967.258485926827	1413.431788944880	580.153980948797	937.912461727854	1481.022085941242	403.760727769455	1002.411473132554	923.954723807474	526.471542446002	994.782891969953	952.871081783829	254.586550853934	1071.808663124592	735.902723312588	490.386025394536	1016.120936579922	618.776098451328	556.624443831491	1095.938459939820	571.939204468116	470.732239498126	1102.538918002085	460.348015998970	493.350064906339	1059.327629508259	745.555661160921	300.122608280028	985.583980409600	614.523840355039	250.534523108307	1071.468504922464	550.160611077899	326.907154508561	1076.357699495367	476.394048865015	340.731072992631	1037.923785897260	401.041480701987	336.952531883229	939.505588857770	294.869560916091	284.598333277517	965.640188724671	184.053270606728	366.634800877988	1025.027137633515	390.797421449572	505.810422257233	900.131369264182	352.596476685275	560.957846405459	893.420733397215	239.619266914725	519.227208668628	694.231712779774	158.202999588207	478.415296612083	865.011503428998	130.520310908051	545.704358963270	751.851962757949	120.949274599283	566.165224165814	937.846062248814	34.350154150032	596.740080262304	817.213558984683	39.047737009425	403.386270974628	896.664432793285	36.225435367835	327.988482076209	979.162684962825	95.349159769145	360.512363810684	1108.556477810650	41.143423243995	340.747513254304	961.596867906907	1079.215751383586	103.406542404839	1126.027334246727	876.711700953149	132.491268760345	1014.739472635574	1056.494543800154	670.287680056615	1171.977866510137	851.408105205773	661.031326550094	
